<svg xmlns="http://www.w3.org/2000/svg" viewBox="0 0 87.33 91.11"><defs><style>.cls-1{fill:#010101;}.cls-2{fill:#020202;}.cls-3{fill:#030303;}.cls-4{fill:#050505;}.cls-5{fill:#080909;}.cls-6{fill:#e7e6e6;}.cls-7{fill:#e2e1e1;}.cls-8{fill:#e9e8e8;}.cls-9{fill:#b9b7b7;}.cls-10{fill:#bebcbc;}.cls-11{fill:#cbc9c9;}.cls-12{fill:#231f20;}</style></defs><title>Asset 1</title><g id="Layer_2" data-name="Layer 2"><g id="Layer_1-2" data-name="Layer 1"><path class="cls-1" d="M47.31,57.35c.56,0,1.13.08,1.69.08q18.42,0,36.84,0c.48,0,1.21-.39,1.42.47s0,1.51-1.11,1.32-1.58.34-1.43,1.48.17,2-1.42,1.75c-.73-.11-.51.66-.51,1.07,0,4,0,7.93,0,11.9,0,4.72,0,9.44,0,14.17,0,1-.24,1.29-1.26,1.31s-1.07-.48-1.07-1.27c0-3.12,0-3.11-3.17-3.11-9,0-18,0-27.06,0-1.43,0-1.86.45-1.67,1.77,0,.41,0,.85,0,1.27.07.84,0,1.37-1.13,1.38s-1.09-.63-1.09-1.4c0-8.51,0-17,0-25.51,0-1.31-.36-1.8-1.63-1.58-.88-1.63-1.45-3.28-.4-5.07A2.54,2.54,0,0,1,47.31,57.35Z"/><path class="cls-1" d="M41.32,63.66c.21,6.94,1,13.83,1.54,20.73.13,1.49.41,3-.43,4.39A4.51,4.51,0,0,1,37.87,91a4.21,4.21,0,0,1-3.67-3.85q-.73-8.81-1.39-17.62c-.15-2-.12-2-2.06-2-3.35,0-6.7-.07-10,0-4.31.14-7.13-2.08-7.76-6.56a36.9,36.9,0,0,1,1-15.81c.69-2.35,1.21-4.72,2.76-6.71A7.79,7.79,0,0,1,24,35.62c2.3.56,4.14,3.45,3.66,6.79a8.07,8.07,0,0,1-2.49-2.48,3.8,3.8,0,0,0-6.49.94,3.49,3.49,0,0,0,.9,3.84c1.86,2.13,3.7,4.3,5.7,6.32a2.54,2.54,0,0,1,.7,2,19.05,19.05,0,0,0-.42,4.76c0,.61.19.87.8.84,3.35-.13,6.7.25,10-.2a4.33,4.33,0,0,1,4.72,3.71A5.24,5.24,0,0,0,41.32,63.66Z"/><path class="cls-1" d="M60.47,24.08c-.2,0-.26,0-.29,0a13.93,13.93,0,0,0-2.73-2.5c-1.21-.62-2.08.82-3.19,1.18-4.41,1.43-8.51.94-12-2.11A11.23,11.23,0,0,1,38.65,9.05a11,11,0,0,1,8-8.51A11.11,11.11,0,0,1,58.13,3.33a11.25,11.25,0,0,1,3.14,11.73A11.46,11.46,0,0,1,59,19.36a1,1,0,0,0-.11,1.34A14.66,14.66,0,0,1,60.47,24.08Z"/><path class="cls-1" d="M12.41,73.57a10.14,10.14,0,0,1-3.54-1.18C7.2,71.67,7.08,70,6.53,68.61c-1.39-3.45-2.62-7-3.91-10.46C1.81,56,1,53.75.17,51.56c-.1-.27-.27-.64-.09-.79C1.5,49.59.38,48.23.34,47a14.7,14.7,0,0,1,.1-4.49c.16-.6.41-1.12,1-1.25s.74.5,1,.86a41.88,41.88,0,0,1,4,8.25A61.93,61.93,0,0,1,9.64,60.6c0,.14.14.26.14.39,0,.63.42,1.35-.25,1.84s-1.36-.08-1.92-.42a16.28,16.28,0,0,1-2-1.59c-.21,1.09.65,2,.93,3,.48,1.73,1.32,3.37,1.91,5.07.28.83.73.92,1.49.83a69.94,69.94,0,0,1,18.34,0c.77.11,1.93-.08,2.09,1s-.94,1.6-1.84,2a6.83,6.83,0,0,1-2.79.89c-1.53.29-3,.86-4.64.39-.75-.22-1,.67-1.17,1.3a7.35,7.35,0,0,0,0,1.41c0,.35.14.83-.39.92s-.79-.25-1-.62-.2-.82-.41-1.19c.19-1.12-1-.88-1.4-1.42a1.71,1.71,0,0,0-2.07-.49A2.52,2.52,0,0,1,12.41,73.57Z"/><path class="cls-2" d="M18.64,20.29a3.61,3.61,0,0,1-.79-.65c-.49-.73-1-.6-1.63-.21a7,7,0,0,1-7.79-.69A7.12,7.12,0,0,1,6.5,10.59,7.29,7.29,0,0,1,12.79,6.4,6.75,6.75,0,0,1,19,10.08a6.34,6.34,0,0,1-.11,6.67A3.17,3.17,0,0,0,18.64,20.29Z"/><path class="cls-3" d="M37.88,27.37a8.77,8.77,0,0,1-3,5.87,1.23,1.23,0,0,1-1.64.17,15.12,15.12,0,0,1-2.75-2.73c-.29-.36-.05-.53.17-.81,1.69-2.11,1.5-3.8-.65-5.33a1.22,1.22,0,0,1-.6-1.27,6.58,6.58,0,0,1,1.24-3.11,1.47,1.47,0,0,1,2-.56A8.35,8.35,0,0,1,37.88,27.37Z"/><path class="cls-4" d="M29,19.14a11.83,11.83,0,0,0-1.47,4.7c0,.56-.66.76-1,1.09a3,3,0,0,0-1.16,3.21,2.91,2.91,0,0,0,2.58,2.43,2.55,2.55,0,0,1,2.14,1.28,10.59,10.59,0,0,0,1.94,2c.6.48.57.7-.23.94A8,8,0,1,1,29,19.14Z"/><path class="cls-1" d="M21.24,82.84c2.63.77,5.27,1.54,7.9,2.33.6.18,1.32.28,1.14,1.24-.08.41.36.59.56.88a2,2,0,0,1,0,2.59,1.78,1.78,0,0,1-2.51.41,1.71,1.71,0,0,1-.67-2.44c.73-1.21.1-1.38-.94-1.63-1.94-.46-3.84-1.11-5.76-1.68a.64.64,0,0,0-.25-.12c-.9-.13-1.47-.62-1.1-1.52S20.68,82.58,21.24,82.84Z"/><path class="cls-5" d="M30.38,27.45a1.72,1.72,0,0,1-1.93,1.87c-1.29,0-1.71-.84-1.83-1.87a1.85,1.85,0,0,1,1.9-2A1.73,1.73,0,0,1,30.38,27.45Z"/><path class="cls-1" d="M18.12,75.75c.47.54.66,1.32,1.5,1.69.07-.94.14-1.8.19-2.67a1.87,1.87,0,0,1,.93-1.49c.19-.13.5-.35.6-.13.86,1.87,2.27.2,3.36.53.31.1.69-.28,1.08-.14-.94.82-2.16.52-3.24.75a20.66,20.66,0,0,1-2,.58c-.45,0-.51.38-.49.72.14,1.74-.45,3.46-.16,5.21l-.12.14c-.65-.06-.67-.8-1.13-1-.36.45-.07,1-.19,1.44s.1,1-.64.93Z"/><path d="M50.28,56.11a1.73,1.73,0,0,1,2.1-1.36c.94.08,1.89,0,2.83,0,.38,0,.61.11.6.56s0,.78-.53.78Z"/><path class="cls-3" d="M36,35.46c-.46-.15-1.31.27-1.4-.61s.77-.65,1.23-.66,1.4-.29,1.48.58S36.55,35.39,36,35.46Z"/><path class="cls-1" d="M12.41,73.57c1,.1,1.95.42,3-.34.69-.5,1,.54,1.32,1.1l-3.12-.27C13.16,74,12.66,74.1,12.41,73.57Z"/><path class="cls-6" d="M49.84,10.54c1,0,1.41.44,1.42,1.26a1.18,1.18,0,0,1-1.19,1.29,1.21,1.21,0,0,1-1.32-1.31C48.74,11.19,49,10.44,49.84,10.54Z"/><path class="cls-7" d="M44.09,10.54c1,0,1.45.45,1.46,1.27a1.23,1.23,0,0,1-1.24,1.27,1.15,1.15,0,0,1-1.3-1.3C43,11,43.33,10.51,44.09,10.54Z"/><path class="cls-8" d="M55.87,10.54c.77-.11,1.17.46,1.19,1.21a1.23,1.23,0,0,1-1.27,1.35,1.21,1.21,0,0,1-1.25-1.22A1.17,1.17,0,0,1,55.87,10.54Z"/><path class="cls-9" d="M13.68,13.33a.67.67,0,0,1-.69.75c-.49,0-.89-.14-.85-.66s.2-.83.73-.83S13.54,13,13.68,13.33Z"/><path class="cls-10" d="M16.1,12.59a.89.89,0,0,1,1,.77c.05.48-.33.73-.83.71s-.76-.13-.74-.62A1,1,0,0,1,16.1,12.59Z"/><path class="cls-11" d="M9.61,14.07c-.58,0-.91-.21-.88-.62s.21-.84.71-.83a.79.79,0,0,1,.82.88C10.26,14,9.84,14,9.61,14.07Z"/><path class="cls-1" d="M19.05,82.33c-1.19-.85-.68-1.88-.33-2.9a3.52,3.52,0,0,1,1,1.51C19.52,81.42,20.17,82.3,19.05,82.33Z"/><path class="cls-12" d="M50.2,52.25a2.71,2.71,0,0,0-2.63-1.73c-4.25,0-8.49,0-12.74,0a2.4,2.4,0,0,1-2.06-.9c-2.65-3-5.38-6-8.09-9-1.3-1.44-3.14-1.7-4.34-.64-1.43,1.27-1.41,2.78.05,4.4,2.52,2.79,5,5.6,7.57,8.35a16.57,16.57,0,0,0,3.19,3.18c1.93.56,3.92.14,5.87.39a2.45,2.45,0,0,0,1.26-.11l5.15.18a8.29,8.29,0,0,0,4.73-.2,3.82,3.82,0,0,0,1.64-1A2.83,2.83,0,0,0,50.2,52.25Z"/><path d="M71,54.79,65.16,40.35h0c-.07-.78-.85-1.42-.82-2.18l0-.26.76-4.08.22-1.16v-.06l0-.07.49-2.62,1-5.19c.11-.52.2-1,.32-1.56a1.59,1.59,0,0,0,0-.36l.08-.4a1,1,0,0,0-1.8-.61,1.17,1.17,0,0,0-.1.26l-.88,4.7-.57,3-.89,4.74,0,.17-.22,1.17-.07.37-.55,2.93L62,40.23l-.44,2.33-1.83,9.76a1,1,0,1,0,1.89.36l1.88-10,0,.21c.38-.28.26-.9.75-1.11h0c1.71,4.29,3.43,8.58,5.18,13-3.45,0-6.75,0-10,0-.43,0-1.1-.34-1.13.58s.65.74,1.17.75c3.59,0,7.18-.06,10.76,0C71.54,56.19,71.38,55.61,71,54.79Z"/><polygon points="10.37 73.06 18.12 75.75 19.5 73.06 14.13 71.51 10.37 73.06"/><polygon points="19.97 75.23 27.76 73.01 24.42 72.59 19.5 73.06 19.97 75.23"/><path class="cls-1" d="M8,85.41c-.68.2-.36.57-.14.92.49.52,0,.81-.29,1.11-1.17,1.23-1.18,1.23-.18,2.75A2,2,0,0,0,10,90a1.79,1.79,0,0,0,.12-2.72c-.42-.5-.15-.57.22-.78l.29-.89Z"/><path class="cls-1" d="M19.63,85c-.71,0-.91.83-1.49,1h0a2,2,0,0,1-.7,1.43,1.81,1.81,0,0,0-.18,2.11,1.9,1.9,0,0,0,1.82,1,1.8,1.8,0,0,0,1.75-1.14,2.12,2.12,0,0,0-.76-2.59C19.42,86.36,19.87,85.62,19.63,85Z"/><path class="cls-1" d="M21.24,82.84a2.66,2.66,0,0,1-1.35-2l-.17.14c-.25.36-.34.85-.75,1.09a2.63,2.63,0,0,0,.08.3c-1,.25-.71,1.53-1.54,1.92h0c1.09.27.37,1.19.63,1.76a4.59,4.59,0,0,1,.38-.73,1,1,0,0,1,1-.55c.58.14.33.66.38,1s-.08.74.13,1.08c0-.5.05-1,0-1.5-.07-.71.32-.84.89-.81-.49-.45-1.45-.65-1-1.62C20.25,82.15,20.8,83,21.24,82.84Z"/><path class="cls-1" d="M19.94,85.77c-.05-.38.2-.9-.38-1a1,1,0,0,0-1,.55,4.59,4.59,0,0,0-.38.73h0c.58-.21.78-1,1.49-1,.24.65-.21,1.39.44,1.88C19.86,86.51,20,86.13,19.94,85.77Z"/><path class="cls-1" d="M14.08,84.39l1.6-.07a1.43,1.43,0,0,1-.3-.67Z"/><path class="cls-1" d="M15.86,84.31l1.65-.06a3.34,3.34,0,0,1,1.34-2.14s.08,0,.12-.08a15.07,15.07,0,0,1-.25-2.6c-.32-.68-.42-.48-.53.1-.18.91.48,1.93-.38,2.74l-1.95,1.11C15.86,83.69,15.88,84,15.86,84.31Z"/><path class="cls-1" d="M17.51,84.25h0c.83-.39.54-1.67,1.54-1.92A2.63,2.63,0,0,1,19,82s-.07.07-.12.08A3.34,3.34,0,0,0,17.51,84.25Z"/><polygon class="cls-1" points="17.51 84.25 17.51 84.25 17.51 84.25 17.51 84.25"/><path class="cls-1" d="M15.86,83.38l-.48.27a1.43,1.43,0,0,0,.3.67h.18C15.88,84,15.86,83.69,15.86,83.38Z"/><path d="M11.05,86.29a2,2,0,0,0-.71.22Z"/><path d="M15.84,84.56a5.13,5.13,0,0,1-.7.44l1.33-.43A4.46,4.46,0,0,1,15.84,84.56Z"/><path d="M12.24,85.91l1.59-.5-.54,0Z"/><path d="M11.38,85.68l-.75-.06-.29.89a2,2,0,0,1,.71-.22l.46-.15A.91.91,0,0,1,11.38,85.68Z"/><path d="M15.68,84.32l-1.6.07-.25.14a1.26,1.26,0,0,1,.29.79l1-.32a5.13,5.13,0,0,0,.7-.44Z"/><path d="M13,85l-1.27.72h-.07l-.11.41.66-.21,1-.47Z"/><path d="M11.51,86.14l.07,0,.11-.41-.31,0A.91.91,0,0,0,11.51,86.14Z"/><path d="M17.51,84.25l-1.65.06a1,1,0,0,1,0,.25,4.46,4.46,0,0,0,.63,0l1-.32Z"/><polygon points="17.51 84.25 17.51 84.25 17.51 84.25 17.51 84.25"/><path d="M15.84,84.56a1,1,0,0,0,0-.25h-.18Z"/><path d="M13.46,84.74l-.1.06c0,.22.12.45-.07.64l.54,0,.24-.08C13.86,85.14,13.69,84.91,13.46,84.74Z"/><path d="M14.07,85.33h0a1.26,1.26,0,0,0-.29-.79l-.37.21C13.69,84.91,13.86,85.14,14.07,85.33Z"/><path d="M13.29,85.44c.19-.19,0-.42.07-.64L13,85Z"/><path d="M11,84.52h0a.68.68,0,0,1,.12-.12L8,85.41c1-.31,2-.6,3-.89Z"/><path d="M17.81,82.27l-4.64,1.48a25.72,25.72,0,0,0,2.71-.84C16.63,83,17.15,82.43,17.81,82.27Z"/><path d="M11,84.52h0c-1,.29-2,.58-3,.89l2.65.21Z"/><path d="M12.73,84.45A.35.35,0,0,1,13,84c.36-.19.6.11.78.36h.35l1.3-.74c0-.25.1-.5.5-.74a25.72,25.72,0,0,1-2.71.84l-2.05.65a.68.68,0,0,0-.12.12Z"/><path d="M15.88,82.91a3.7,3.7,0,0,0,0,.47l1.95-1.11C17.15,82.43,16.63,83,15.88,82.91Z"/><path d="M15.88,82.91c-.4.24-.52.49-.5.74l.48-.27A3.7,3.7,0,0,1,15.88,82.91Z"/><path d="M13,84a.35.35,0,0,0-.22.41l1,0C13.55,84.15,13.31,83.85,13,84Z"/><polygon points="11 84.52 11 84.52 11 84.52 11 84.52"/><path d="M11,84.52h0l-.37,1.1.75.06C11.36,85.26,11.45,84.8,11,84.52Z"/><path d="M13.74,84.41l.09.12.25-.14h-.34Z"/><path d="M12.73,84.45,11,84.52h0c.7.16.87.38.69,1.19h.07L13,85l-.09-.14A2.56,2.56,0,0,1,12.73,84.45Z"/><path d="M11,84.52c.45.28.36.74.38,1.16l.31,0C11.87,84.9,11.7,84.68,11,84.52Z"/><path d="M13.36,84.8l.1-.06-.07-.06A.53.53,0,0,0,13.36,84.8Z"/><path d="M13.73,84.4l-1,0a2.56,2.56,0,0,0,.21.4L13,85l.33-.19a.53.53,0,0,1,0-.12l.07.06.37-.21-.09-.12Z"/></g></g></svg>