<svg xmlns="http://www.w3.org/2000/svg" viewBox="0 0 70.05 80.23"><defs><style>.cls-1{fill:#040404;}.cls-2{fill:#020302;}.cls-3{fill:#c4c2c2;}.cls-4{fill:none;stroke:#fff;stroke-miterlimit:10;stroke-width:2px;}</style></defs><title>logoAsset 2</title><g id="Layer_2" data-name="Layer 2"><g id="Layer_1-2" data-name="Layer 1"><path class="cls-1" d="M35,42.71h33.6c.67,0,1.53-.31,1.48,1,0,.71-.15,1.14-.94,1-1.76-.33-2.16.54-2,2.08.13.94.11,1.82-1.3,1.58-.93-.15-.81.58-.81,1.15v7.26c0,7.2,0,14.4,0,21.6,0,1.41-.5,1.74-1.74,1.64-.66,0-1-.23-.91-.92,0-.32,0-.63,0-1,0-3.08,0-3.08-3.15-3.07-16.62,0-33.23,0-49.85,0-1.6,0-2.06.51-1.87,2a13.87,13.87,0,0,1,0,1.58c0,.76.23,1.52-1.12,1.46s-1.32-.56-1.32-1.54c0-9.52,0-19,0-28.55,0-1,.09-1.75-1.33-1.64-1.2.09-.85-1-.81-1.64.11-1.4-.19-2.24-1.84-2-.67.11-1.23,0-1.19-1s.49-1,1.21-1H35Z"/><path class="cls-2" d="M35.05,25.71c-3.63,0-7.26.07-10.88,0-1.45,0-1.92.34-1.88,1.82.1,3.68,0,7.36,0,11,0,1.39-1.39,3.08-2.54,3.1-2.73,0-4.25-1.1-4.19-3.29a28.29,28.29,0,0,1,1-6.19c1-3.69,2.23-7.23,5.14-9.88a8.17,8.17,0,0,1,5.77-2.35c4.79.06,9.57.14,14.35,0,4.43-.14,7.18,2.2,9.29,5.68,2.33,3.85,2.94,8.22,3.57,12.55.33,2.24-3.25,4.69-5.06,3.35-.62-.45-2-1.07-1.86-2.74.27-3.56.09-7.15.08-10.72,0-2.86.06-2.29-2.22-2.3C42.1,25.69,38.57,25.71,35.05,25.71Z"/><path class="cls-1" d="M35.08,40.34c-3.46,0-6.93,0-10.39,0-.89,0-1.17-.25-1.15-1.15,0-3.68,0-7.35,0-11,0-.9.27-1.13,1.15-1.13q10.4,0,20.79,0c1,0,1.19.36,1.18,1.28,0,3.57-.07,7.14,0,10.71,0,1.1-.36,1.33-1.34,1.31C41.91,40.31,38.49,40.34,35.08,40.34Z"/><path class="cls-1" d="M27.11,4.83l.34-.58c1-.15,1.39.79,2,1.29.77.63,1.49,1.4,2.6,1.25.56-.07,1.28-.3,1.24-1s-.75-.48-1.25-.47a2.84,2.84,0,0,1-3-3L30.85,1C32,.69,32.42,1.61,33,2.17a3.34,3.34,0,0,0,2.58,1.26c.58,0,1.34-.11,1.37-.78C37,1.8,36.2,2,35.67,2c-1.75-.08-2.28-.52-2.27-1.92,4.16-.43,7.52.81,9.52,4.69a8.4,8.4,0,0,1-.67,9.17,8.28,8.28,0,0,1-8.74,3.5c-2.94-.55-5.29-2-6.39-5a3.77,3.77,0,0,1,1.15-1.63,1.63,1.63,0,0,0-.12-2.67C27.18,7.26,26.15,6.34,27.11,4.83Z"/><path class="cls-1" d="M45,76.34c3,0,5.79,0,8.61,0,.92,0,.71.47.5,1a4.77,4.77,0,0,1-8.76,0C45.27,77.13,45.2,76.89,45,76.34Z"/><path class="cls-1" d="M20.56,76.34c1.2,0,2.4,0,3.6,0,.63,0,1,0,.68.87a4.82,4.82,0,0,1-4.33,3,4.94,4.94,0,0,1-4.43-2.66c-.33-.82-.29-1.35.87-1.25S19.35,76.34,20.56,76.34Z"/><path class="cls-1" d="M27.11,4.83c-.55,1.26.27,2,1,2.8,1.67,1.75,1.65,2.27-.06,4a10.38,10.38,0,0,1-.95.78C25.46,9.89,26,7.36,27.11,4.83Z"/><path class="cls-1" d="M29,2.31a2.77,2.77,0,0,0,3.46,2.45c.89-.25,1.15.4,1.46.85s-.26.81-.6,1.07c-1.17.87-2.43.73-3.71-.39-.74-.66-1.45-1.36-2.17-2C28,3.63,28.29,2.79,29,2.31Z"/><path class="cls-1" d="M33.4.08c.52,1.24,1.27,2.09,2.74,1.46.88-.37,1.15.33,1.47.78s-.22.82-.57,1.07c-1.18.86-2.56.64-3.85-.45C32.42,2.28,32,1.16,30.85,1A8,8,0,0,1,33.4.08Z"/><path class="cls-3" d="M35.08,35.59c-.5-.27-1.13-.42-1-1.16a1,1,0,0,1,1-1c.67,0,1,.42,1,1.1S35.59,35.4,35.08,35.59Z"/><polyline class="cls-4" points="31.48 8.59 33.62 10.73 38.07 6.28"/></g></g></svg>