<svg xmlns="http://www.w3.org/2000/svg" viewBox="0 0 226.28 90.35"><defs><style>.cls-1{fill:#ec1e24;}.cls-2{font-size:6.76px;font-family:Montserrat-SemiBold, Montserrat;font-weight:700;}.cls-3{letter-spacing:-0.02em;}.cls-4{letter-spacing:-0.01em;}.cls-5{letter-spacing:0em;}</style></defs><title>logoAsset 1</title><g id="Layer_2" data-name="Layer 2"><g id="Layer_1-2" data-name="Layer 1"><path d="M25.65,67.17A6.07,6.07,0,0,0,26,69.31a2.93,2.93,0,0,0,.94,1.27,3.57,3.57,0,0,0,1.55.63,12.74,12.74,0,0,0,2.19.17A14.72,14.72,0,0,0,34.31,71,20.37,20.37,0,0,0,37.16,70c.82-.33,1.51-.65,2.07-.93a3.14,3.14,0,0,1,1.31-.43,1.19,1.19,0,0,1,.92.37,1.54,1.54,0,0,1,.33,1.07,4.61,4.61,0,0,1-.24,1.76,1.68,1.68,0,0,1-1,.82,32.69,32.69,0,0,1-6.29,1.46,60.7,60.7,0,0,1-7.92.47A40.94,40.94,0,0,1,21,74.34a8.74,8.74,0,0,1-3.29-1,3.81,3.81,0,0,1-1.64-2A10.29,10.29,0,0,1,15.59,68V33.17a2.87,2.87,0,0,0-.16-1.07,1.46,1.46,0,0,0-.42-.63,1.68,1.68,0,0,0-.66-.31,4.5,4.5,0,0,0-.85-.07,8.32,8.32,0,0,0-1.67.21,13.89,13.89,0,0,0-2.1.65A16.65,16.65,0,0,0,7.5,33a10.48,10.48,0,0,0-2,1.42,7.09,7.09,0,0,0-1.43,1.78,4.24,4.24,0,0,0-.55,2.12,3.92,3.92,0,0,0,.26,1.56,2.43,2.43,0,0,0,.6.88,1.56,1.56,0,0,0,.69.37,2.59,2.59,0,0,0,.5.07A2.57,2.57,0,0,0,6.84,41a5.86,5.86,0,0,0,.89-.55l.75-.55a1.32,1.32,0,0,1,.82-.26,2,2,0,0,1,.78.17,2.27,2.27,0,0,1,.77.53,3.35,3.35,0,0,1,.6,1,3.91,3.91,0,0,1,.24,1.46,4.47,4.47,0,0,1-.47,2.11A4.72,4.72,0,0,1,10,46.32a5,5,0,0,1-1.72.89,6.39,6.39,0,0,1-1.92.29A6.63,6.63,0,0,1,3.7,47a5.77,5.77,0,0,1-2-1.4A6.11,6.11,0,0,1,.43,43.52,7.42,7.42,0,0,1,0,41a9.63,9.63,0,0,1,.77-3.88,10.86,10.86,0,0,1,2.1-3.18A14.29,14.29,0,0,1,6,31.44a20.42,20.42,0,0,1,3.88-1.76,25.47,25.47,0,0,1,4.36-1.06,28.94,28.94,0,0,1,4.54-.36,12.5,12.5,0,0,1,3.91.48,5.26,5.26,0,0,1,2.06,1.15,2.64,2.64,0,0,1,.78,1.41,7.87,7.87,0,0,1,.12,1.23Z"/><path d="M65.67,47.11A53.42,53.42,0,0,1,64.58,58a54,54,0,0,1-3,9.82A45.06,45.06,0,0,1,57,76.15a35.39,35.39,0,0,1-5.73,6.49,25.32,25.32,0,0,1-6.56,4.2,17.19,17.19,0,0,1-7,1.51,8,8,0,0,1-4.17-.91A2.76,2.76,0,0,1,32.1,85a3.56,3.56,0,0,1,.18-1.13,3.81,3.81,0,0,1,.49-1,2.7,2.7,0,0,1,.74-.69,1.78,1.78,0,0,1,.92-.26,1.14,1.14,0,0,1,1,.59l.81,1.27a6.57,6.57,0,0,0,1,1.27,2.35,2.35,0,0,0,1.69.59,9.44,9.44,0,0,0,2.88-.48,15.21,15.21,0,0,0,3-1.36,23.54,23.54,0,0,0,3-2.17,35.71,35.71,0,0,0,3-2.84c-.58-2.06-1.24-4.32-2-6.76s-1.54-4.91-2.36-7.38S44.86,59.79,44,57.49s-1.72-4.34-2.55-6.12a27.87,27.87,0,0,0-2.39-4.28c-.77-1.07-1.45-1.61-2-1.61a1.91,1.91,0,0,0-.91.18c-.21.13-.46.3-.75.52l-.61-.76L36,44.34a9.35,9.35,0,0,1,1.6-1,9.48,9.48,0,0,1,2.15-.75,13.16,13.16,0,0,1,2.94-.29,7.46,7.46,0,0,1,3.49.84,7.75,7.75,0,0,1,2.93,3.12q.94,1.68,2,4t2.07,5.27q1,2.93,2.1,6.31T57.41,69a47.1,47.1,0,0,0,3.07-8.45,36.12,36.12,0,0,0,1.17-9.19,15.84,15.84,0,0,0-.22-2.88,14,14,0,0,0-.49-2c-.18-.57-.35-1.05-.49-1.45a3.25,3.25,0,0,1-.21-1.06,1,1,0,0,1,.36-.78,2.86,2.86,0,0,1,.89-.5,5.69,5.69,0,0,1,1.06-.27,6.65,6.65,0,0,1,.91-.07,2,2,0,0,1,1.27.34,1.89,1.89,0,0,1,.66,1,5.42,5.42,0,0,1,.25,1.52C65.66,45.7,65.67,46.37,65.67,47.11Z"/><path d="M90.86,52.91a3.81,3.81,0,0,1-1.6-.3,2.75,2.75,0,0,1-1-.78,3.28,3.28,0,0,1-.58-1.09,4.28,4.28,0,0,1-.19-1.24,11.82,11.82,0,0,1,.11-1.6,5.4,5.4,0,0,0,0-1.38,1.57,1.57,0,0,0-.47-1,2.07,2.07,0,0,0-1.41-.37,5,5,0,0,0-2.28.62,6.39,6.39,0,0,0-2.17,1.93,11.15,11.15,0,0,0-1.63,3.39,16.9,16.9,0,0,0-.64,5A26.71,26.71,0,0,0,79.58,62a14.12,14.12,0,0,0,1.8,4.53,8.68,8.68,0,0,0,3,2.9,8.21,8.21,0,0,0,4.17,1,8.51,8.51,0,0,0,2-.25,9.19,9.19,0,0,0,1.82-.67,12.08,12.08,0,0,0,1.65-1c.52-.38,1-.78,1.51-1.21l.77.73a20.21,20.21,0,0,1-1.81,2.09,14,14,0,0,1-2.67,2.13,15.17,15.17,0,0,1-3.65,1.66,15.78,15.78,0,0,1-4.76.66,13.62,13.62,0,0,1-5.2-1,13.43,13.43,0,0,1-4.49-3,14.8,14.8,0,0,1-3.15-4.77,16.34,16.34,0,0,1-1.18-6.4,17.79,17.79,0,0,1,.71-5.14A17.14,17.14,0,0,1,72,50a15.79,15.79,0,0,1,2.83-3.34,17.1,17.1,0,0,1,3.39-2.41,16.23,16.23,0,0,1,3.63-1.46,13.88,13.88,0,0,1,3.58-.49,13.43,13.43,0,0,1,4,.52,9.1,9.1,0,0,1,2.81,1.38,5.68,5.68,0,0,1,1.67,2,5.17,5.17,0,0,1,.55,2.32,6.34,6.34,0,0,1-.23,1.7,4.39,4.39,0,0,1-.67,1.41,3.21,3.21,0,0,1-1.12.95A3.31,3.31,0,0,1,90.86,52.91Z"/><path class="cls-1" d="M140,67.3c-.49.42-1,.83-1.48,1.21a10.86,10.86,0,0,1-1.53,1,7.83,7.83,0,0,1-3.71.92,7.71,7.71,0,0,1-2.84-.5,8.39,8.39,0,0,1-2.36-1.32,10.09,10.09,0,0,1-1.87-1.88,12.61,12.61,0,0,1-1.37-2.23,11.28,11.28,0,0,1-.65-1.65c3.21-2.71,6.41-5.42,9.59-8.16.93-.8,1.87-1.61,2.79-2.43a7.33,7.33,0,0,0,1.69-1.69,4.51,4.51,0,0,0,.6-2.27A4.92,4.92,0,0,0,138.3,46a5.47,5.47,0,0,0-1.66-1.92,8.42,8.42,0,0,0-2.79-1.32,14.27,14.27,0,0,0-4-.49,14.61,14.61,0,0,0-4.73.83,16.76,16.76,0,0,0-4.62,2.42,8.36,8.36,0,0,0-3.75-2.48,15.78,15.78,0,0,0-5.12-.77,19.24,19.24,0,0,0-4,.41A13,13,0,0,0,104.07,44a7.75,7.75,0,0,0-2.56,2.2,5.23,5.23,0,0,0-1,3.2,4.39,4.39,0,0,0,1.07,3.1,3.54,3.54,0,0,0,2.77,1.17,3.25,3.25,0,0,0,1.24-.23,3.29,3.29,0,0,0,1.05-.64,3.2,3.2,0,0,0,.71-1,2.68,2.68,0,0,0,.25-1.18,2,2,0,0,0-.47-1.45,3.63,3.63,0,0,0-1.06-.74L105,48a.67.67,0,0,1-.47-.66,1.3,1.3,0,0,1,.37-.84,3.66,3.66,0,0,1,1-.82,7.27,7.27,0,0,1,3.47-.86,5.19,5.19,0,0,1,3.6,1.26,4.94,4.94,0,0,1,1.38,3.81A5.11,5.11,0,0,1,111,54.66l-4.68,1.82a18.9,18.9,0,0,0-4.08,2.12,10.08,10.08,0,0,0-2.9,3,8.62,8.62,0,0,0-1.1,4.59,10,10,0,0,0,.66,3.9,7.07,7.07,0,0,0,1.74,2.59,6.83,6.83,0,0,0,2.47,1.46,8.86,8.86,0,0,0,2.85.46,15,15,0,0,0,1.91-.15,10.09,10.09,0,0,0,2.5-.75,15.3,15.3,0,0,0,2.93-1.79l0,0c.33-.23,1.61-1.29,3.44-2.8a12.28,12.28,0,0,0,4.74,4,14.54,14.54,0,0,0,6.38,1.44,15.6,15.6,0,0,0,4.74-.66,16,16,0,0,0,3.65-1.66,14.11,14.11,0,0,0,2.68-2.13A21.55,21.55,0,0,0,140.76,68Zm-28,2.48a2.45,2.45,0,0,1-1.56.46,2.9,2.9,0,0,1-1.23-.27,2.62,2.62,0,0,1-1-1,5.87,5.87,0,0,1-.7-1.85,13.47,13.47,0,0,1-.27-3,11.18,11.18,0,0,1,.54-3.8A6.3,6.3,0,0,1,109.2,58a6,6,0,0,1,2.19-1.36,19.94,19.94,0,0,1,2.7-.77,11.41,11.41,0,0,0-.2,1.57c0,.53,0,1.08,0,1.65a21.27,21.27,0,0,0,.25,3.37,38.22,38.22,0,0,0,1.34,4.36C115.05,67.32,112.39,69.48,112,69.78Zm11.75-9.72-.06-2.52c0-.58,0-1.28,0-2.11s.08-1.68.18-2.59.25-1.79.44-2.68a10.89,10.89,0,0,1,.8-2.38,5.2,5.2,0,0,1,1.29-1.7,2.83,2.83,0,0,1,1.89-.66,2.11,2.11,0,0,1,1.47.55,4.48,4.48,0,0,1,1,1.38,6.55,6.55,0,0,1,.57,1.77,9.87,9.87,0,0,1,.17,1.7,9.47,9.47,0,0,1-.07,1.18c-.18,1-1,1.63-1.73,2.3l-2.24,2.17c-1.21,1.16-2.42,2.33-3.64,3.48Z"/><path d="M171.72,68.8q0,.27,0,.6a2.1,2.1,0,0,0,.15.61,1.11,1.11,0,0,0,.37.48,1.18,1.18,0,0,0,.71.18,1.56,1.56,0,0,0,1-.41c.31-.28.59-.56.86-.85l.73.65a16.37,16.37,0,0,1-1.15,1.42A9.41,9.41,0,0,1,172.79,73a9.71,9.71,0,0,1-2.24,1.19,8.19,8.19,0,0,1-2.85.47,7.18,7.18,0,0,1-2.35-.35,5.21,5.21,0,0,1-1.69-1,3.79,3.79,0,0,1-1-1.42,4.55,4.55,0,0,1-.33-1.73V68.8a23.59,23.59,0,0,1-3.23,2.91q-.73.56-1.56,1.08a15.9,15.9,0,0,1-1.72.94,11.85,11.85,0,0,1-1.84.66,7.73,7.73,0,0,1-1.9.24A6.91,6.91,0,0,1,148.9,74a5.89,5.89,0,0,1-2.1-1.73,7.4,7.4,0,0,1-1.17-2.43,10.44,10.44,0,0,1-.36-2.7v-19q0-.28,0-.6a2.38,2.38,0,0,0-.16-.61,1,1,0,0,0-.37-.48,1.17,1.17,0,0,0-.7-.18,1.52,1.52,0,0,0-1,.41,8.32,8.32,0,0,0-.84.84l-.77-.64c.31-.43.69-.91,1.15-1.43a10.69,10.69,0,0,1,1.67-1.49,9.84,9.84,0,0,1,2.26-1.18,8.21,8.21,0,0,1,2.84-.47,7.33,7.33,0,0,1,2.36.35,5.1,5.1,0,0,1,1.69,1,3.9,3.9,0,0,1,1,1.41,4.61,4.61,0,0,1,.34,1.74v20.5a3,3,0,0,0,.13.87,3.06,3.06,0,0,0,.4.81,2.1,2.1,0,0,0,.66.6,1.94,1.94,0,0,0,1,.23,3.78,3.78,0,0,0,1.78-.46,8.43,8.43,0,0,0,1.63-1.09A11.58,11.58,0,0,0,161.51,67l.79-.92V48.12q0-.28,0-.6a2,2,0,0,0-.16-.61,1,1,0,0,0-.37-.48,1.15,1.15,0,0,0-.7-.18,1.52,1.52,0,0,0-1,.41,8.32,8.32,0,0,0-.84.84l-.77-.64c.31-.43.69-.91,1.15-1.43a10.69,10.69,0,0,1,1.67-1.49,9.84,9.84,0,0,1,2.26-1.18,8.21,8.21,0,0,1,2.84-.47,7.33,7.33,0,0,1,2.36.35,5.1,5.1,0,0,1,1.69,1,3.9,3.9,0,0,1,1,1.41,4.61,4.61,0,0,1,.34,1.74Z"/><path d="M206,71.44a4.55,4.55,0,0,1-.12,1,2.1,2.1,0,0,1-.6,1,3.87,3.87,0,0,1-1.42.85,7.82,7.82,0,0,1-2.58.35,7,7,0,0,1-2.56-.38,3.91,3.91,0,0,1-1.42-.91,2.39,2.39,0,0,1-.59-1.07,3.94,3.94,0,0,1-.13-.89V49.68a3.37,3.37,0,0,0-.12-.87,2.49,2.49,0,0,0-.37-.81,1.94,1.94,0,0,0-.61-.6,1.54,1.54,0,0,0-.86-.23,3.22,3.22,0,0,0-1.63.47,10,10,0,0,0-1.49,1.09A11.32,11.32,0,0,0,190.3,50c-.34.41-.58.72-.72.92V71.44a4,4,0,0,1-.13,1,2.16,2.16,0,0,1-.59,1,3.87,3.87,0,0,1-1.42.85,7.57,7.57,0,0,1-2.56.35,7,7,0,0,1-2.56-.38,4.15,4.15,0,0,1-1.43-.91,2.35,2.35,0,0,1-.61-1.07,4.47,4.47,0,0,1-.12-.89V47.69a2.83,2.83,0,0,0-.42-1.55,1.51,1.51,0,0,0-1.39-.66,2,2,0,0,0-.89.18,5.13,5.13,0,0,0-.8.52l-.65-.76a17.48,17.48,0,0,1,1.58-1.15,13.05,13.05,0,0,1,1.89-1,13.92,13.92,0,0,1,2.18-.71,10.82,10.82,0,0,1,2.45-.27,6.05,6.05,0,0,1,3.1.66,4.35,4.35,0,0,1,1.63,1.58,4.83,4.83,0,0,1,.63,1.92,16.52,16.52,0,0,1,.11,1.67,22.42,22.42,0,0,1,3.1-2.92,16.13,16.13,0,0,1,1.48-1.07,16.32,16.32,0,0,1,1.68-.94,10.83,10.83,0,0,1,1.78-.66,7.21,7.21,0,0,1,1.84-.24,6.42,6.42,0,0,1,5.06,2.19,6.13,6.13,0,0,1,1.12,1.9,5.25,5.25,0,0,1,.35,1.74,26.42,26.42,0,0,1,3.1-2.92,16.13,16.13,0,0,1,1.48-1.07,13.55,13.55,0,0,1,1.67-.94,11.55,11.55,0,0,1,1.78-.66,7.05,7.05,0,0,1,1.82-.24,6.47,6.47,0,0,1,3,.66,5.82,5.82,0,0,1,2,1.73A7.5,7.5,0,0,1,222,47.11a10.87,10.87,0,0,1,.35,2.7v19q0,.27,0,.6a2.1,2.1,0,0,0,.15.61,1,1,0,0,0,.39.48,1.18,1.18,0,0,0,.69.18,1.54,1.54,0,0,0,1-.41c.31-.28.59-.56.86-.85l.74.65a13.1,13.1,0,0,1-1.14,1.42A10.59,10.59,0,0,1,223.47,73a9.51,9.51,0,0,1-2.24,1.19,8.35,8.35,0,0,1-2.87.47,7.22,7.22,0,0,1-2.35-.35,5.31,5.31,0,0,1-1.69-1,3.66,3.66,0,0,1-1-1.42,4.38,4.38,0,0,1-.34-1.73V49.68a3.37,3.37,0,0,0-.12-.87,3,3,0,0,0-.36-.81,1.78,1.78,0,0,0-.59-.6,1.56,1.56,0,0,0-.86-.23,3.31,3.31,0,0,0-1.65.47,9.59,9.59,0,0,0-1.5,1.09A10.32,10.32,0,0,0,206.7,50c-.33.41-.56.72-.71.92Z"/><polygon class="cls-1" points="131.75 23.17 120.17 34.75 108.59 23.17 131.75 23.17"/><polygon points="120.17 11.58 108.59 23.17 108.59 0 120.17 11.58"/><polygon points="131.75 0 131.75 23.17 120.17 11.58 131.75 0"/><text class="cls-2" transform="translate(68.35 88.56)">UPSKILLING THE ENGINEERING <tspan class="cls-3" x="111.89" y="0">C</tspan><tspan x="116.71" y="0">OMMUNI</tspan><tspan class="cls-4" x="148.27" y="0">T</tspan><tspan class="cls-5" x="152.27" y="0">Y</tspan></text><path d="M224,37.39a2.9,2.9,0,0,1-3,2.93,2.92,2.92,0,1,1,0-5.83A2.9,2.9,0,0,1,224,37.39Zm-5.2,0A2.24,2.24,0,0,0,221,39.7a2.21,2.21,0,0,0,2.2-2.29,2.23,2.23,0,1,0-4.46,0Zm1.78,1.52h-.67V36a6,6,0,0,1,1.11-.09,1.74,1.74,0,0,1,1,.22.78.78,0,0,1,.28.63.74.74,0,0,1-.6.67v0a.86.86,0,0,1,.53.7,2.42,2.42,0,0,0,.21.73h-.72a2.51,2.51,0,0,1-.23-.71c-.06-.32-.23-.46-.6-.46h-.32Zm0-1.64h.31c.38,0,.68-.13.68-.43s-.2-.44-.62-.44a1.39,1.39,0,0,0-.37,0Z"/></g></g></svg>