<svg xmlns="http://www.w3.org/2000/svg" viewBox="0 0 96.63 86.33"><defs><style>.cls-1{fill:#040404;}.cls-2{fill:#010101;}.cls-3{fill:#020202;}.cls-4{fill:#020302;}.cls-5{fill:#e2e1e1;}.cls-6{fill:#e3e2e1;}.cls-7{fill:#e1e0e0;}.cls-8{fill:#c4c2c2;}.cls-9{fill:#cfcece;}.cls-10{fill:#c8c6c6;}.cls-11{fill:#cccbcb;}</style></defs><title>logoAsset 3</title><g id="Layer_2" data-name="Layer 2"><g id="Layer_1-2" data-name="Layer 1"><path class="cls-1" d="M68.82,56.45H95.45c.54,0,1.22-.25,1.18.75,0,.56-.12.91-.74.79-1.4-.27-1.72.42-1.55,1.64.1.74.08,1.44-1,1.26-.73-.12-.64.45-.64.9v5.76c0,5.71,0,11.42,0,17.12,0,1.12-.4,1.38-1.38,1.3-.52,0-.78-.18-.72-.73a6.26,6.26,0,0,0,0-.75c0-2.44,0-2.44-2.5-2.44-13.17,0-26.34,0-39.51,0-1.27,0-1.64.41-1.49,1.57a8.68,8.68,0,0,1,0,1.25c0,.6.18,1.2-.89,1.16s-1-.45-1-1.23c0-7.54,0-15.08,0-22.63,0-.76.08-1.38-1.05-1.29-1,.07-.68-.81-.64-1.3.08-1.12-.15-1.79-1.47-1.57-.52.09-1,0-.93-.76s.38-.79,1-.79c5.5,0,11,0,16.5,0Z"/><path class="cls-2" d="M27.75,57.75c1.67,0,3.34-.12,5,0a3.71,3.71,0,0,1,3.43,3.61c.4,5.14.78,10.29,1.17,15.43.13,1.66.3,3.32.45,5a3.88,3.88,0,1,1-7.7.68c-.44-5.31-.88-10.62-1.27-15.93-.06-1-.45-1.13-1.32-1.12-3.33.06-6.67,0-10,0a5.72,5.72,0,0,1-6-5,31.15,31.15,0,0,1,.18-12.39,30.47,30.47,0,0,1,2.24-7,6.58,6.58,0,0,1,9.33-2.88c2.71,1.72,5.69,3,8.53,4.49a1.43,1.43,0,0,0,1.06.18l9.51-2.38a4.12,4.12,0,0,1,2-.16,2.66,2.66,0,0,1,1.9,2.44,2.93,2.93,0,0,1-2,2.41C40.4,46.09,36.58,47,32.78,48c-1.27.33-2.11-.42-3.12-.8-3.18-1.17-5.39-3.49-7.45-6a3.65,3.65,0,0,0-4-1.13,3.28,3.28,0,0,0-.83,5.41Q19.66,48,22,50.53a2.34,2.34,0,0,1,.75,2.19,32.85,32.85,0,0,0-.45,3.72c-.06,1.09.33,1.35,1.34,1.3,1.37-.08,2.75,0,4.13,0Z"/><path class="cls-2" d="M30.47,21c.42-.78.8-1.58,1.25-2.34a1.53,1.53,0,0,0-.13-2A10.29,10.29,0,0,1,35.94.76,10.18,10.18,0,0,1,50,8.61a10.28,10.28,0,0,1-11.84,12,9,9,0,0,1-3.9-1.49,1,1,0,0,0-1.51.22,22.4,22.4,0,0,1-2,1.85Z"/><path class="cls-3" d="M17.81,82.69a1.6,1.6,0,0,1,.51,2.1,1.92,1.92,0,0,1-1.69,1,1.76,1.76,0,0,1-1.4-2.62,4.19,4.19,0,0,0,.48-.56,2.32,2.32,0,0,0,.11-2.15c-.27-.57-1,0-1.42.07-2,.56-3.91,1.25-5.91,1.91a2,2,0,0,1,.57,2.45,1.55,1.55,0,0,1-1.63.86,1.66,1.66,0,0,1-1.35-2.59c.3-.48.75-.87.7-1.52,0-.4.3-.4.59-.49,2.48-.75,5-1.53,7.44-2.27.76-.22,1.23-.53,1.16-1.45-.09-1.21,0-2.42,0-3.63,0-2-.12-2.06-2.15-2.46-1.53-.3-3.08-.52-4.6-.95a4.88,4.88,0,0,1-3.34-3.46C4,61.79,2.07,56.66.15,51.53a1,1,0,0,1,.18-1.28c.66-.69.16-1.56,0-2.32a10,10,0,0,1,0-4.69c.14-.45.32-1,.79-1s.67.41.91.76a38.17,38.17,0,0,1,3.63,7.67,48.81,48.81,0,0,1,2.52,8c.18.9.84,2.14-.1,2.64S6.42,60.7,5.72,60c-.29-.28-.55-.6-.94-1A18.38,18.38,0,0,0,6,62.84c.37,1.27.91,2.48,1.36,3.73a1,1,0,0,0,1.31.8c4.21-.79,8.47-.36,12.71-.42a20.69,20.69,0,0,1,4.68.7c.36.08.79,0,.79.58a1.2,1.2,0,0,1-.49,1A10.62,10.62,0,0,1,21.65,71a17.6,17.6,0,0,0-3.46.83c-.62.26-.73.52-.73,1,0,1.5.05,3,0,4.5a1.3,1.3,0,0,0,1.13,1.49c2.45.72,4.88,1.49,7.32,2.25.2.06.57.09.58.15.07,1.22,1.46,2,1.08,3.37a2,2,0,0,1-2.35,1,1.81,1.81,0,0,1-1-2.26,7.29,7.29,0,0,1,.67-1.06l-6.6-1.94c-.51-.21-.91-.22-.89.5S17.28,82.19,17.81,82.69Z"/><path class="cls-4" d="M68.89,43c-2.88,0-5.75.06-8.63,0-1.15,0-1.52.27-1.49,1.44.08,2.91,0,5.83,0,8.75,0,1.1-1.1,2.44-2,2.45-2.16,0-3.37-.86-3.32-2.6a22.11,22.11,0,0,1,.76-4.91c.76-2.92,1.77-5.73,4.08-7.83a6.48,6.48,0,0,1,4.57-1.86c3.79,0,7.59.11,11.38,0,3.51-.12,5.69,1.74,7.36,4.5,1.84,3,2.33,6.51,2.83,9.95.26,1.77-2.58,3.71-4,2.65-.5-.36-1.57-.85-1.48-2.18.22-2.81.07-5.66.07-8.49,0-2.27,0-1.81-1.77-1.83C74.47,43,71.68,43,68.89,43Z"/><path class="cls-1" d="M68.91,54.57c-2.74,0-5.49,0-8.24,0-.7,0-.92-.19-.91-.91q.06-4.38,0-8.74c0-.71.21-.9.91-.9q8.24,0,16.47,0c.81,0,1,.29.94,1,0,2.83-.06,5.66,0,8.49,0,.87-.29,1.05-1.06,1C74.32,54.55,71.62,54.57,68.91,54.57Z"/><path class="cls-3" d="M19.27,29.7a7,7,0,1,1,14,0,7.08,7.08,0,0,1-7,7A7,7,0,0,1,19.27,29.7Z"/><path class="cls-3" d="M43.32,50.93a2.19,2.19,0,0,1,1,2.65,2.12,2.12,0,0,1-2.12,1.79c-2.23,0-4.47,0-6.72-.07a35.33,35.33,0,0,0-5.34.15,5.25,5.25,0,0,1-4.82-2.13c-2.4-2.75-4.87-5.44-7.29-8.17a3.86,3.86,0,0,1-1-1.54,2.5,2.5,0,0,1,1.23-2.75,2.33,2.33,0,0,1,2.85.35q4,4.35,8,8.72a1.3,1.3,0,0,0,.68.52c2.15.24,4.31.06,6.47.1,1.79,0,3.58,0,5.37,0A3.08,3.08,0,0,1,43.32,50.93Z"/><path class="cls-1" d="M62.6,26.43l.26-.47c.82-.11,1.1.63,1.59,1s1.18,1.11,2.06,1c.44-.06,1-.24,1-.78s-.59-.38-1-.37a2.25,2.25,0,0,1-2.4-2.4l1.46-1c.87-.25,1.24.48,1.73.93a2.63,2.63,0,0,0,2,1c.46,0,1.06-.09,1.08-.62s-.61-.5-1-.51c-1.39-.07-1.81-.42-1.8-1.53,3.29-.34,6,.65,7.54,3.72a6.65,6.65,0,0,1-.52,7.27,6.57,6.57,0,0,1-6.93,2.77,6.16,6.16,0,0,1-5.07-4,3,3,0,0,1,.91-1.29A1.29,1.29,0,0,0,63.42,29C62.65,28.36,61.83,27.62,62.6,26.43Z"/><path class="cls-3" d="M62.68,21.29c-1-1.47-1.85-.79-3-.25-2.41,1.17-6.13-.53-7.41-3a6.12,6.12,0,1,1,11.45-1.84,5.43,5.43,0,0,1-1.28,2.84c-.32.33-.22.62,0,1S63.05,20.62,62.68,21.29Z"/><path class="cls-1" d="M76.79,83.11c2.35,0,4.58,0,6.82,0,.73,0,.56.36.4.8a3.84,3.84,0,0,1-3.42,2.28,3.79,3.79,0,0,1-3.53-2.26C77,83.74,76.93,83.54,76.79,83.11Z"/><path class="cls-1" d="M57.4,83.11c1,0,1.9,0,2.86,0,.49,0,.78,0,.53.68a3.82,3.82,0,0,1-3.43,2.4,3.93,3.93,0,0,1-3.51-2.11c-.26-.65-.23-1.07.69-1S56.45,83.11,57.4,83.11Z"/><path class="cls-1" d="M62.6,26.43c-.44,1,.21,1.58.8,2.21,1.32,1.4,1.31,1.81,0,3.18a7.6,7.6,0,0,1-.76.62C61.29,30.44,61.7,28.43,62.6,26.43Z"/><path class="cls-1" d="M64.1,24.43a2.2,2.2,0,0,0,2.75,1.95c.7-.2.9.31,1.15.67s-.21.64-.48.84a2.15,2.15,0,0,1-2.94-.31C64,27.06,63.44,26.5,62.86,26,63.31,25.48,63.53,24.81,64.1,24.43Z"/><path class="cls-1" d="M67.58,22.66c.41,1,1,1.66,2.17,1.16.7-.29.91.26,1.16.62s-.17.65-.45.85a2.33,2.33,0,0,1-3-.36c-.62-.52-.92-1.41-1.86-1.54A6.36,6.36,0,0,1,67.58,22.66Z"/><path class="cls-3" d="M43.32,50.93c-4-.54-8.06-.12-12.08-.27-.49,0-1,.17-1.44-.21,4.12,0,8.23,0,12.35,0C42.6,50.42,43.08,50.4,43.32,50.93Z"/><path class="cls-5" d="M34.51,11.44a.94.94,0,0,1-1-1.12,1.06,1.06,0,0,1,1.21-1.11,1.08,1.08,0,0,1,1,1.17C35.76,11.13,35.3,11.48,34.51,11.44Z"/><path class="cls-6" d="M39.72,11.44c-.7.11-1-.39-1-1s.27-1.26,1.08-1.24a1.14,1.14,0,0,1,1.17,1.19A1,1,0,0,1,39.72,11.44Z"/><path class="cls-7" d="M44.81,11.44a.94.94,0,0,1-1.08-1,1.11,1.11,0,0,1,1.08-1.26A1.09,1.09,0,0,1,46,10.37,1,1,0,0,1,44.81,11.44Z"/><path class="cls-8" d="M68.91,50.81c-.39-.21-.9-.34-.83-.92a.84.84,0,0,1,.8-.79c.53,0,.79.33.79.87S69.32,50.66,68.91,50.81Z"/><path class="cls-3" d="M30.57,53.65a2.47,2.47,0,0,1,2.92-2.38.49.49,0,0,1,.5.57c0,.38-.15.83-.62.8-1.06-.07-1.4.42-1.36,1.41,0,.55-.45.64-.9.61C30.37,54.61,30.63,54,30.57,53.65Z"/><path class="cls-9" d="M61.38,15.23c0,.31-.06.65-.52.68a.69.69,0,0,1-.78-.63.75.75,0,0,1,.65-.8C61.15,14.43,61.38,14.77,61.38,15.23Z"/><path class="cls-10" d="M58.4,15.18c0,.46-.17.77-.65.73a.65.65,0,0,1-.67-.72.73.73,0,0,1,.69-.72C58.19,14.45,58.37,14.82,58.4,15.18Z"/><path class="cls-11" d="M55.36,15.22c0,.34,0,.67-.52.69a.63.63,0,0,1-.74-.64.69.69,0,0,1,.63-.79C55.16,14.44,55.37,14.79,55.36,15.22Z"/></g></g></svg>